<?xml version="1.0" standalone="no"?>
<!DOCTYPE svg PUBLIC "-//W3C//DTD SVG 20010904//EN"
 "http://www.w3.org/TR/2001/REC-SVG-20010904/DTD/svg10.dtd">
<svg version="1.0" xmlns="http://www.w3.org/2000/svg"
 width="822.000000pt" height="1116.000000pt" viewBox="0 0 822.000000 1116.000000"
 preserveAspectRatio="xMidYMid meet">

<g transform="translate(0.000000,1116.000000) scale(0.100000,-0.100000)"
fill="#000000" stroke="none">
<path d="M3690 10397 c-30 -7 -65 -19 -77 -25 l-23 -13 0 -3275 c0 -1841 -4
-3274 -9 -3272 -4 2 -508 413 -1120 913 -611 501 -1123 914 -1137 920 -48 18
-98 -41 -78 -93 6 -15 572 -721 1259 -1568 1259 -1553 1293 -1594 1353 -1594
10 0 32 10 49 23 46 34 2568 3116 2571 3143 4 32 -56 98 -81 88 -10 -3 -523
-413 -1140 -911 l-1122 -904 -3 3274 -2 3275 -33 13 c-46 17 -337 22 -407 6z"/>
</g>
</svg>
